{
	"asset":{
		"generator":"Khronos glTF Blender I/O v3.6.28",
		"version":"2.0"
	},
	"scene":0,
	"scenes":[
		{
			"name":"Scene",
			"nodes":[
				2
			]
		}
	],
	"nodes":[
		{
			"mesh":0,
			"name":"image"
		},
		{
			"mesh":1,
			"name":"image1"
		},
		{
			"children":[
				0,
				1
			],
			"mesh":2,
			"name":"cube",
			"scale":[
				1,
				1,
				0.07187683135271072
			],
			"translation":[
				0.004015681333839893,
				0.996707022190094,
				-0.004266146570444107
			]
		}
	],
	"materials":[
		{
			"doubleSided":true,
			"name":"material2",
			"pbrMetallicRoughness":{
				"metallicFactor":0,
				"roughnessFactor":0.5
			}
		},
		{
			"doubleSided":true,
			"name":"material1",
			"pbrMetallicRoughness":{
				"baseColorFactor":[
					0.016926635056734085,
					0.02579207345843315,
					0.016514211893081665,
					1
				],
				"metallicFactor":0.46496814489364624,
				"roughnessFactor":0.7038216590881348
			}
		}
	],
	"meshes":[
		{
			"name":"\u7acb\u65b9\u4f53.001",
			"primitives":[
				{
					"attributes":{
						"POSITION":0,
						"NORMAL":1,
						"TEXCOORD_0":2
					},
					"indices":3,
					"material":0
				}
			]
		},
		{
			"name":"\u7acb\u65b9\u4f53.002",
			"primitives":[
				{
					"attributes":{
						"POSITION":4,
						"NORMAL":5,
						"TEXCOORD_0":6
					},
					"indices":7,
					"material":0
				}
			]
		},
		{
			"name":"\u7acb\u65b9\u4f53.007",
			"primitives":[
				{
					"attributes":{
						"POSITION":8,
						"NORMAL":9,
						"TEXCOORD_0":10
					},
					"indices":11,
					"material":1
				}
			]
		}
	],
	"accessors":[
		{
			"bufferView":0,
			"componentType":5126,
			"count":24,
			"max":[
				0.9280557632446289,
				0.9280557632446289,
				-1.221907377243042
			],
			"min":[
				-0.9280557632446289,
				-0.9280557632446289,
				-1.221907377243042
			],
			"type":"VEC3"
		},
		{
			"bufferView":1,
			"componentType":5126,
			"count":24,
			"type":"VEC3"
		},
		{
			"bufferView":2,
			"componentType":5126,
			"count":24,
			"type":"VEC2"
		},
		{
			"bufferView":3,
			"componentType":5123,
			"count":66,
			"type":"SCALAR"
		},
		{
			"bufferView":4,
			"componentType":5126,
			"count":24,
			"max":[
				0.9280557632446289,
				0.9280557632446289,
				1.221907377243042
			],
			"min":[
				-0.9280557632446289,
				-0.9280557632446289,
				1.221907377243042
			],
			"type":"VEC3"
		},
		{
			"bufferView":5,
			"componentType":5126,
			"count":24,
			"type":"VEC3"
		},
		{
			"bufferView":6,
			"componentType":5126,
			"count":24,
			"type":"VEC2"
		},
		{
			"bufferView":7,
			"componentType":5123,
			"count":66,
			"type":"SCALAR"
		},
		{
			"bufferView":8,
			"componentType":5126,
			"count":284,
			"max":[
				1,
				1,
				1.221907377243042
			],
			"min":[
				-1,
				-1,
				-1.221907377243042
			],
			"type":"VEC3"
		},
		{
			"bufferView":9,
			"componentType":5126,
			"count":284,
			"type":"VEC3"
		},
		{
			"bufferView":10,
			"componentType":5126,
			"count":284,
			"type":"VEC2"
		},
		{
			"bufferView":11,
			"componentType":5123,
			"count":528,
			"type":"SCALAR"
		}
	],
	"bufferViews":[
		{
			"buffer":0,
			"byteLength":288,
			"byteOffset":0,
			"target":34962
		},
		{
			"buffer":0,
			"byteLength":288,
			"byteOffset":288,
			"target":34962
		},
		{
			"buffer":0,
			"byteLength":192,
			"byteOffset":576,
			"target":34962
		},
		{
			"buffer":0,
			"byteLength":132,
			"byteOffset":768,
			"target":34963
		},
		{
			"buffer":0,
			"byteLength":288,
			"byteOffset":900,
			"target":34962
		},
		{
			"buffer":0,
			"byteLength":288,
			"byteOffset":1188,
			"target":34962
		},
		{
			"buffer":0,
			"byteLength":192,
			"byteOffset":1476,
			"target":34962
		},
		{
			"buffer":0,
			"byteLength":132,
			"byteOffset":1668,
			"target":34963
		},
		{
			"buffer":0,
			"byteLength":3408,
			"byteOffset":1800,
			"target":34962
		},
		{
			"buffer":0,
			"byteLength":3408,
			"byteOffset":5208,
			"target":34962
		},
		{
			"buffer":0,
			"byteLength":2272,
			"byteOffset":8616,
			"target":34962
		},
		{
			"buffer":0,
			"byteLength":1056,
			"byteOffset":10888,
			"target":34963
		}
	],
	"buffers":[
		{
			"byteLength":11944,
			"uri":"data:application/octet-stream;base64,"
		}
	]
}
