{
	"asset":{
		"generator":"Khronos glTF Blender I/O v3.6.28",
		"version":"2.0"
	},
	"scene":0,
	"scenes":[
		{
			"name":"Scene",
			"nodes":[
				0
			]
		}
	],
	"nodes":[
		{
			"mesh":0,
			"name":"cube",
			"scale":[
				1,
				1,
				0.07187683135271072
			],
			"translation":[
				0.0004974119365215302,
				0.9816153645515442,
				0.00013872608542442322
			]
		}
	],
	"materials":[
		{
			"doubleSided":true,
			"name":"m001",
			"pbrMetallicRoughness":{
				"baseColorFactor":[
					0.016926635056734085,
					0.02579207345843315,
					0.016514211893081665,
					1
				],
				"metallicFactor":0.46496814489364624,
				"roughnessFactor":0.7038216590881348
			}
		},
		{
			"doubleSided":true,
			"name":"m002",
			"pbrMetallicRoughness":{
				"baseColorTexture":{
					"index":0
				},
				"metallicFactor":0,
				"roughnessFactor":0.5
			}
		}
	],
	"meshes":[
		{
			"name":"cube",
			"primitives":[
				{
					"attributes":{
						"POSITION":0,
						"NORMAL":1,
						"TEXCOORD_0":2
					},
					"indices":3,
					"material":0
				},
				{
					"attributes":{
						"POSITION":4,
						"NORMAL":5,
						"TEXCOORD_0":6
					},
					"indices":7,
					"material":1
				}
			]
		}
	],
	"textures":[
		{
			"sampler":0,
			"source":0
		}
	],
	"images":[
		{
			"bufferView":8,
			"mimeType":"image/png",
			"name":"\u7acb\u65b9\u4f53"
		}
	],
	"accessors":[
		{
			"bufferView":0,
			"componentType":5126,
			"count":284,
			"max":[
				1,
				1,
				1.221907377243042
			],
			"min":[
				-1,
				-1,
				-1.221907377243042
			],
			"type":"VEC3"
		},
		{
			"bufferView":1,
			"componentType":5126,
			"count":284,
			"type":"VEC3"
		},
		{
			"bufferView":2,
			"componentType":5126,
			"count":284,
			"type":"VEC2"
		},
		{
			"bufferView":3,
			"componentType":5123,
			"count":528,
			"type":"SCALAR"
		},
		{
			"bufferView":4,
			"componentType":5126,
			"count":48,
			"max":[
				0.9280557632446289,
				0.9280557632446289,
				1.221907377243042
			],
			"min":[
				-0.9280557632446289,
				-0.9280557632446289,
				-1.221907377243042
			],
			"type":"VEC3"
		},
		{
			"bufferView":5,
			"componentType":5126,
			"count":48,
			"type":"VEC3"
		},
		{
			"bufferView":6,
			"componentType":5126,
			"count":48,
			"type":"VEC2"
		},
		{
			"bufferView":7,
			"componentType":5123,
			"count":132,
			"type":"SCALAR"
		}
	],
	"bufferViews":[
		{
			"buffer":0,
			"byteLength":3408,
			"byteOffset":0,
			"target":34962
		},
		{
			"buffer":0,
			"byteLength":3408,
			"byteOffset":3408,
			"target":34962
		},
		{
			"buffer":0,
			"byteLength":2272,
			"byteOffset":6816,
			"target":34962
		},
		{
			"buffer":0,
			"byteLength":1056,
			"byteOffset":9088,
			"target":34963
		},
		{
			"buffer":0,
			"byteLength":576,
			"byteOffset":10144,
			"target":34962
		},
		{
			"buffer":0,
			"byteLength":576,
			"byteOffset":10720,
			"target":34962
		},
		{
			"buffer":0,
			"byteLength":384,
			"byteOffset":11296,
			"target":34962
		},
		{
			"buffer":0,
			"byteLength":264,
			"byteOffset":11680,
			"target":34963
		},
		{
			"buffer":0,
			"byteLength":461516,
			"byteOffset":11944
		}
	],
	"samplers":[
		{
			"magFilter":9729,
			"minFilter":9987
		}
	],
	"buffers":[
		{
			"byteLength":473460,
			"uri":"data:application/octet-stream;base64,"
		}
	]
}
