{
	"asset":{
		"generator":"Khronos glTF Blender I/O v3.6.28",
		"version":"2.0"
	},
	"extensionsUsed":[
		"KHR_materials_transmission",
		"KHR_materials_specular",
		"KHR_materials_ior"
	],
	"scene":0,
	"scenes":[
		{
			"name":"Scene",
			"nodes":[
				0
			]
		}
	],
	"nodes":[
		{
			"mesh":0,
			"name":"Glasses",
			"rotation":[
				0.7071068286895752,
				0,
				0,
				0.7071068286895752
			],
			"scale":[
				0.6326163411140442,
				0.6326163411140442,
				0.6326163411140442
			],
			"translation":[
				-0.4449729919433594,
				0,
				-28.4782657623291
			]
		}
	],
	"materials":[
		{
			"doubleSided":true,
			"extensions":{
				"KHR_materials_transmission":{
					"transmissionFactor":1
				},
				"KHR_materials_specular":{
					"specularColorFactor":[
						1,
						1,
						1
					]
				},
				"KHR_materials_ior":{
					"ior":1.4500000476837158
				}
			},
			"name":"wire_027177148",
			"pbrMetallicRoughness":{
				"baseColorFactor":[
					0.10589999705553055,
					0.694100022315979,
					0.5803999900817871,
					1
				],
				"metallicFactor":0,
				"roughnessFactor":0.8211145401000977
			}
		},
		{
			"alphaMode":"BLEND",
			"doubleSided":true,
			"extensions":{
				"KHR_materials_specular":{
					"specularColorFactor":[
						17.982000350952145,
						17.982000350952145,
						17.982000350952145
					]
				}
			},
			"name":"10___Default",
			"pbrMetallicRoughness":{
				"baseColorFactor":[
					0.5881999731063843,
					0.5881999731063843,
					0.5881999731063843,
					0
				],
				"metallicFactor":0,
				"roughnessFactor":0.6837722063064575
			}
		},
		{
			"doubleSided":true,
			"extensions":{
				"KHR_materials_transmission":{
					"transmissionFactor":1
				},
				"KHR_materials_specular":{
					"specularColorFactor":[
						1,
						1,
						1
					]
				}
			},
			"name":"08___Default",
			"pbrMetallicRoughness":{
				"baseColorFactor":[
					0.019600000232458115,
					0.011800000444054604,
					0.0038999998942017555,
					1
				],
				"metallicFactor":0,
				"roughnessFactor":0.8999999761581421
			}
		},
		{
			"doubleSided":true,
			"extensions":{
				"KHR_materials_transmission":{
					"transmissionFactor":1
				},
				"KHR_materials_specular":{
					"specularColorFactor":[
						1,
						1,
						1
					]
				}
			},
			"name":"09___Default",
			"pbrMetallicRoughness":{
				"baseColorFactor":[
					0.5881999731063843,
					0.5881999731063843,
					0.5881999731063843,
					1
				],
				"metallicFactor":0,
				"roughnessFactor":0.6837722063064575
			}
		}
	],
	"meshes":[
		{
			"name":"Glasses",
			"primitives":[
				{
					"attributes":{
						"POSITION":0,
						"NORMAL":1,
						"TEXCOORD_0":2
					},
					"indices":3,
					"material":0
				},
				{
					"attributes":{
						"POSITION":4,
						"NORMAL":5,
						"TEXCOORD_0":6
					},
					"indices":7,
					"material":1
				},
				{
					"attributes":{
						"POSITION":8,
						"NORMAL":9,
						"TEXCOORD_0":10
					},
					"indices":11,
					"material":2
				},
				{
					"attributes":{
						"POSITION":12,
						"NORMAL":13,
						"TEXCOORD_0":14
					},
					"indices":15,
					"material":3
				}
			]
		}
	],
	"accessors":[
		{
			"bufferView":0,
			"componentType":5126,
			"count":34,
			"max":[
				-27.24799919128418,
				84.49169921875,
				4.957099914550781
			],
			"min":[
				-27.690900802612305,
				74.35870361328125,
				4.415900230407715
			],
			"type":"VEC3"
		},
		{
			"bufferView":1,
			"componentType":5126,
			"count":34,
			"type":"VEC3"
		},
		{
			"bufferView":2,
			"componentType":5126,
			"count":34,
			"type":"VEC2"
		},
		{
			"bufferView":3,
			"componentType":5123,
			"count":48,
			"type":"SCALAR"
		},
		{
			"bufferView":4,
			"componentType":5126,
			"count":4682,
			"max":[
				-25.07110023498535,
				105.83509826660156,
				4.901899814605713
			],
			"min":[
				-30.9242000579834,
				-24.204599380493164,
				-42.69889831542969
			],
			"type":"VEC3"
		},
		{
			"bufferView":5,
			"componentType":5126,
			"count":4682,
			"type":"VEC3"
		},
		{
			"bufferView":6,
			"componentType":5126,
			"count":4682,
			"type":"VEC2"
		},
		{
			"bufferView":7,
			"componentType":5123,
			"count":27240,
			"type":"SCALAR"
		},
		{
			"bufferView":8,
			"componentType":5126,
			"count":23234,
			"max":[
				118.31580352783203,
				114.41079711914062,
				6.553100109100342
			],
			"min":[
				-30.92729949951172,
				-32.78030014038086,
				-44.74639892578125
			],
			"type":"VEC3"
		},
		{
			"bufferView":9,
			"componentType":5126,
			"count":23234,
			"type":"VEC3"
		},
		{
			"bufferView":10,
			"componentType":5126,
			"count":23234,
			"type":"VEC2"
		},
		{
			"bufferView":11,
			"componentType":5123,
			"count":139392,
			"type":"SCALAR"
		},
		{
			"bufferView":12,
			"componentType":5126,
			"count":11391,
			"max":[
				-15.66919994354248,
				111.14689636230469,
				-33.54309844970703
			],
			"min":[
				-23.535499572753906,
				-29.51650047302246,
				-37.5099983215332
			],
			"type":"VEC3"
		},
		{
			"bufferView":13,
			"componentType":5126,
			"count":11391,
			"type":"VEC3"
		},
		{
			"bufferView":14,
			"componentType":5126,
			"count":11391,
			"type":"VEC2"
		},
		{
			"bufferView":15,
			"componentType":5123,
			"count":13488,
			"type":"SCALAR"
		}
	],
	"bufferViews":[
		{
			"buffer":0,
			"byteLength":408,
			"byteOffset":0,
			"target":34962
		},
		{
			"buffer":0,
			"byteLength":408,
			"byteOffset":408,
			"target":34962
		},
		{
			"buffer":0,
			"byteLength":272,
			"byteOffset":816,
			"target":34962
		},
		{
			"buffer":0,
			"byteLength":96,
			"byteOffset":1088,
			"target":34963
		},
		{
			"buffer":0,
			"byteLength":56184,
			"byteOffset":1184,
			"target":34962
		},
		{
			"buffer":0,
			"byteLength":56184,
			"byteOffset":57368,
			"target":34962
		},
		{
			"buffer":0,
			"byteLength":37456,
			"byteOffset":113552,
			"target":34962
		},
		{
			"buffer":0,
			"byteLength":54480,
			"byteOffset":151008,
			"target":34963
		},
		{
			"buffer":0,
			"byteLength":278808,
			"byteOffset":205488,
			"target":34962
		},
		{
			"buffer":0,
			"byteLength":278808,
			"byteOffset":484296,
			"target":34962
		},
		{
			"buffer":0,
			"byteLength":185872,
			"byteOffset":763104,
			"target":34962
		},
		{
			"buffer":0,
			"byteLength":278784,
			"byteOffset":948976,
			"target":34963
		},
		{
			"buffer":0,
			"byteLength":136692,
			"byteOffset":1227760,
			"target":34962
		},
		{
			"buffer":0,
			"byteLength":136692,
			"byteOffset":1364452,
			"target":34962
		},
		{
			"buffer":0,
			"byteLength":91128,
			"byteOffset":1501144,
			"target":34962
		},
		{
			"buffer":0,
			"byteLength":26976,
			"byteOffset":1592272,
			"target":34963
		}
	],
	"buffers":[
		{
			"byteLength":1619248,
			"uri":"data:application/octet-stream;base64,"
		}
	]
}
