{
	"asset":{
		"generator":"Khronos glTF Blender I/O v3.6.28",
		"version":"2.0"
	},
	"scene":0,
	"scenes":[
		{
			"name":"Scene",
			"nodes":[
				0
			]
		}
	],
	"nodes":[
		{
			"mesh":0,
			"name":"\u5706\u73af",
			"scale":[
				1,
				0.3383129835128784,
				1
			],
			"translation":[
				0.0075244903564453125,
				0.3667737543582916,
				-0.04268455505371094
			]
		}
	],
	"materials":[
		{
			"doubleSided":true,
			"name":"\u539f\u6cb9",
			"pbrMetallicRoughness":{
				"metallicFactor":0,
				"roughnessFactor":0.13636362552642822
			}
		}
	],
	"meshes":[
		{
			"name":"\u5706\u73af",
			"primitives":[
				{
					"attributes":{
						"POSITION":0,
						"NORMAL":1,
						"TEXCOORD_0":2
					},
					"indices":3,
					"material":0
				}
			]
		}
	],
	"accessors":[
		{
			"bufferView":0,
			"componentType":5126,
			"count":12482,
			"max":[
				6.670977592468262,
				0.6449728012084961,
				6.6739630699157715
			],
			"min":[
				-6.670977592468262,
				-0.9941547513008118,
				-6.6739630699157715
			],
			"type":"VEC3"
		},
		{
			"bufferView":1,
			"componentType":5126,
			"count":12482,
			"type":"VEC3"
		},
		{
			"bufferView":2,
			"componentType":5126,
			"count":12482,
			"type":"VEC2"
		},
		{
			"bufferView":3,
			"componentType":5123,
			"count":74880,
			"type":"SCALAR"
		}
	],
	"bufferViews":[
		{
			"buffer":0,
			"byteLength":149784,
			"byteOffset":0,
			"target":34962
		},
		{
			"buffer":0,
			"byteLength":149784,
			"byteOffset":149784,
			"target":34962
		},
		{
			"buffer":0,
			"byteLength":99856,
			"byteOffset":299568,
			"target":34962
		},
		{
			"buffer":0,
			"byteLength":149760,
			"byteOffset":399424,
			"target":34963
		}
	],
	"buffers":[
		{
			"byteLength":549184,
			"uri":"data:application/octet-stream;base64,"
		}
	]
}
