{
	"asset":{
		"generator":"Khronos glTF Blender I/O v3.6.28",
		"version":"2.0"
	},
	"scene":0,
	"scenes":[
		{
			"name":"Scene",
			"nodes":[
				0
			]
		}
	],
	"nodes":[
		{
			"mesh":0,
			"name":"ring",
			"scale":[
				1,
				1.348330020904541,
				1
			]
		}
	],
	"meshes":[
		{
			"name":"\u5706\u73af",
			"primitives":[
				{
					"attributes":{
						"POSITION":0,
						"NORMAL":1,
						"TEXCOORD_0":2
					},
					"indices":3
				}
			]
		}
	],
	"accessors":[
		{
			"bufferView":0,
			"componentType":5126,
			"count":15362,
			"max":[
				5.682445049285889,
				0.6430460214614868,
				5.682445049285889
			],
			"min":[
				-5.682445049285889,
				-0.26909393072128296,
				-5.682445049285889
			],
			"type":"VEC3"
		},
		{
			"bufferView":1,
			"componentType":5126,
			"count":15362,
			"type":"VEC3"
		},
		{
			"bufferView":2,
			"componentType":5126,
			"count":15362,
			"type":"VEC2"
		},
		{
			"bufferView":3,
			"componentType":5123,
			"count":92160,
			"type":"SCALAR"
		}
	],
	"bufferViews":[
		{
			"buffer":0,
			"byteLength":184344,
			"byteOffset":0,
			"target":34962
		},
		{
			"buffer":0,
			"byteLength":184344,
			"byteOffset":184344,
			"target":34962
		},
		{
			"buffer":0,
			"byteLength":122896,
			"byteOffset":368688,
			"target":34962
		},
		{
			"buffer":0,
			"byteLength":184320,
			"byteOffset":491584,
			"target":34963
		}
	],
	"buffers":[
		{
			"byteLength":675904,
			"uri":"data:application/octet-stream;base64,"
		}
	]
}
