{
	"asset":{
		"generator":"Khronos glTF Blender I/O v3.6.28",
		"version":"2.0"
	},
	"extensionsUsed":[
		"KHR_materials_specular",
		"KHR_materials_ior"
	],
	"scene":0,
	"scenes":[
		{
			"name":"Scene",
			"nodes":[
				0
			]
		}
	],
	"nodes":[
		{
			"mesh":0,
			"name":"ring",
			"rotation":[
				0,
				0,
				1,
				1.6292068494294654e-07
			],
			"scale":[
				2.4995734691619873,
				2.4995734691619873,
				2.4995734691619873
			],
			"translation":[
				0.0174102783203125,
				-2.5636072158813477,
				0.007986068725585938
			]
		}
	],
	"materials":[
		{
			"doubleSided":true,
			"extensions":{
				"KHR_materials_specular":{
					"specularColorFactor":[
						0.061898424899696075,
						0.061898424899696075,
						0.061898424899696075
					]
				},
				"KHR_materials_ior":{
					"ior":19.33599853515625
				}
			},
			"name":"oil",
			"pbrMetallicRoughness":{
				"baseColorFactor":[
					0,
					0,
					0,
					1
				],
				"metallicFactor":0.47133758664131165,
				"roughnessFactor":0.061363622546195984
			}
		}
	],
	"meshes":[
		{
			"name":"ring",
			"primitives":[
				{
					"attributes":{
						"POSITION":0,
						"NORMAL":1,
						"TEXCOORD_0":2
					},
					"indices":3,
					"material":0
				}
			]
		}
	],
	"accessors":[
		{
			"bufferView":0,
			"componentType":5126,
			"count":3330,
			"max":[
				2.4007654190063477,
				0.004373310599476099,
				2.400765895843506
			],
			"min":[
				-2.400765895843506,
				-1.1026692390441895,
				-2.400765895843506
			],
			"type":"VEC3"
		},
		{
			"bufferView":1,
			"componentType":5126,
			"count":3330,
			"type":"VEC3"
		},
		{
			"bufferView":2,
			"componentType":5126,
			"count":3330,
			"type":"VEC2"
		},
		{
			"bufferView":3,
			"componentType":5123,
			"count":19968,
			"type":"SCALAR"
		}
	],
	"bufferViews":[
		{
			"buffer":0,
			"byteLength":39960,
			"byteOffset":0,
			"target":34962
		},
		{
			"buffer":0,
			"byteLength":39960,
			"byteOffset":39960,
			"target":34962
		},
		{
			"buffer":0,
			"byteLength":26640,
			"byteOffset":79920,
			"target":34962
		},
		{
			"buffer":0,
			"byteLength":39936,
			"byteOffset":106560,
			"target":34963
		}
	],
	"buffers":[
		{
			"byteLength":146496,
			"uri":"data:application/octet-stream;base64,"
		}
	]
}
