{
	"asset":{
		"generator":"Khronos glTF Blender I/O v3.6.28",
		"version":"2.0"
	},
	"extensionsUsed":[
		"KHR_materials_specular",
		"KHR_materials_ior"
	],
	"scene":0,
	"scenes":[
		{
			"name":"Scene",
			"nodes":[
				0
			]
		}
	],
	"nodes":[
		{
			"mesh":0,
			"name":"ring",
			"translation":[
				-0.0068569183349609375,
				-0.24679112434387207,
				-0.044189453125
			]
		}
	],
	"materials":[
		{
			"doubleSided":true,
			"extensions":{
				"KHR_materials_specular":{
					"specularColorFactor":[
						0.061898424899696075,
						0.061898424899696075,
						0.061898424899696075
					]
				},
				"KHR_materials_ior":{
					"ior":19.33599853515625
				}
			},
			"name":"oil",
			"pbrMetallicRoughness":{
				"baseColorFactor":[
					0,
					0,
					0,
					1
				],
				"metallicFactor":0.47133758664131165,
				"roughnessFactor":0.061363622546195984
			}
		}
	],
	"meshes":[
		{
			"name":"ring",
			"primitives":[
				{
					"attributes":{
						"POSITION":0,
						"NORMAL":1,
						"TEXCOORD_0":2
					},
					"indices":3,
					"material":0
				}
			]
		}
	],
	"accessors":[
		{
			"bufferView":0,
			"componentType":5126,
			"count":15360,
			"max":[
				4.703000068664551,
				0.6244482398033142,
				4.703000068664551
			],
			"min":[
				-4.703000068664551,
				0.018738677725195885,
				-4.703000068664551
			],
			"type":"VEC3"
		},
		{
			"bufferView":1,
			"componentType":5126,
			"count":15360,
			"type":"VEC3"
		},
		{
			"bufferView":2,
			"componentType":5126,
			"count":15360,
			"type":"VEC2"
		},
		{
			"bufferView":3,
			"componentType":5123,
			"count":92160,
			"type":"SCALAR"
		}
	],
	"bufferViews":[
		{
			"buffer":0,
			"byteLength":184320,
			"byteOffset":0,
			"target":34962
		},
		{
			"buffer":0,
			"byteLength":184320,
			"byteOffset":184320,
			"target":34962
		},
		{
			"buffer":0,
			"byteLength":122880,
			"byteOffset":368640,
			"target":34962
		},
		{
			"buffer":0,
			"byteLength":184320,
			"byteOffset":491520,
			"target":34963
		}
	],
	"buffers":[
		{
			"byteLength":675840,
			"uri":"data:application/octet-stream;base64,"
		}
	]
}
