{
	"asset":{
		"generator":"Khronos glTF Blender I/O v3.6.28",
		"version":"2.0"
	},
	"extensionsUsed":[
		"KHR_materials_specular",
		"KHR_materials_ior"
	],
	"scene":0,
	"scenes":[
		{
			"name":"Scene",
			"nodes":[
				0
			]
		}
	],
	"nodes":[
		{
			"mesh":0,
			"name":"ring",
			"scale":[
				1.1666264533996582,
				1.1666264533996582,
				1.1666264533996582
			],
			"translation":[
				0.0075531005859375,
				-3.527621030807495,
				-0.03459649160504341
			]
		}
	],
	"materials":[
		{
			"doubleSided":true,
			"extensions":{
				"KHR_materials_specular":{
					"specularColorFactor":[
						0.061898424899696075,
						0.061898424899696075,
						0.061898424899696075
					]
				},
				"KHR_materials_ior":{
					"ior":19.33599853515625
				}
			},
			"name":"oil",
			"pbrMetallicRoughness":{
				"baseColorFactor":[
					0,
					0,
					0,
					1
				],
				"metallicFactor":0.47133758664131165,
				"roughnessFactor":0.061363622546195984
			}
		}
	],
	"meshes":[
		{
			"name":"ring",
			"primitives":[
				{
					"attributes":{
						"POSITION":0,
						"NORMAL":1,
						"TEXCOORD_0":2
					},
					"indices":3,
					"material":0
				}
			]
		}
	],
	"accessors":[
		{
			"bufferView":0,
			"componentType":5126,
			"count":4753,
			"max":[
				5.439868450164795,
				0.8525293469429016,
				5.439868450164795
			],
			"min":[
				-5.439868450164795,
				0.01821235381066799,
				-5.439868450164795
			],
			"type":"VEC3"
		},
		{
			"bufferView":1,
			"componentType":5126,
			"count":4753,
			"type":"VEC3"
		},
		{
			"bufferView":2,
			"componentType":5126,
			"count":4753,
			"type":"VEC2"
		},
		{
			"bufferView":3,
			"componentType":5123,
			"count":28800,
			"type":"SCALAR"
		}
	],
	"bufferViews":[
		{
			"buffer":0,
			"byteLength":57036,
			"byteOffset":0,
			"target":34962
		},
		{
			"buffer":0,
			"byteLength":57036,
			"byteOffset":57036,
			"target":34962
		},
		{
			"buffer":0,
			"byteLength":38024,
			"byteOffset":114072,
			"target":34962
		},
		{
			"buffer":0,
			"byteLength":57600,
			"byteOffset":152096,
			"target":34963
		}
	],
	"buffers":[
		{
			"byteLength":209696,
			"uri":"data:application/octet-stream;base64,"
		}
	]
}
