{
	"asset":{
		"generator":"Khronos glTF Blender I/O v3.6.28",
		"version":"2.0"
	},
	"scene":0,
	"scenes":[
		{
			"name":"Scene",
			"nodes":[
				0
			]
		}
	],
	"nodes":[
		{
			"mesh":0,
			"name":"\u5706\u73af.002",
			"rotation":[
				0,
				0,
				1,
				1.6292068494294654e-07
			],
			"scale":[
				14.928853988647461,
				14.928853988647461,
				14.928853988647461
			],
			"translation":[
				33.128379821777344,
				0,
				-20.488698959350586
			]
		}
	],
	"materials":[
		{
			"doubleSided":true,
			"name":"\u539f\u6cb9",
			"pbrMetallicRoughness":{
				"metallicFactor":0,
				"roughnessFactor":0.13636362552642822
			}
		}
	],
	"meshes":[
		{
			"name":"\u5706\u73af.006",
			"primitives":[
				{
					"attributes":{
						"POSITION":0,
						"NORMAL":1,
						"TEXCOORD_0":2
					},
					"indices":3,
					"material":0
				}
			]
		}
	],
	"accessors":[
		{
			"bufferView":0,
			"componentType":5126,
			"count":30579,
			"max":[
				4.2173333168029785,
				0.18698538839817047,
				3.3706719875335693
			],
			"min":[
				-1.9678865671157837,
				-0.5225898623466492,
				-0.8950440883636475
			],
			"type":"VEC3"
		},
		{
			"bufferView":1,
			"componentType":5126,
			"count":30579,
			"type":"VEC3"
		},
		{
			"bufferView":2,
			"componentType":5126,
			"count":30579,
			"type":"VEC2"
		},
		{
			"bufferView":3,
			"componentType":5123,
			"count":93312,
			"type":"SCALAR"
		}
	],
	"bufferViews":[
		{
			"buffer":0,
			"byteLength":366948,
			"byteOffset":0,
			"target":34962
		},
		{
			"buffer":0,
			"byteLength":366948,
			"byteOffset":366948,
			"target":34962
		},
		{
			"buffer":0,
			"byteLength":244632,
			"byteOffset":733896,
			"target":34962
		},
		{
			"buffer":0,
			"byteLength":186624,
			"byteOffset":978528,
			"target":34963
		}
	],
	"buffers":[
		{
			"byteLength":1165152,
			"uri":"data:application/octet-stream;base64,"
		}
	]
}
